Coordinates
version=1
nRows=13
nColumns=34
inDegrees=yes

Units are S.I. units (second, meters, Newtons, ...)
If the header above contains a line with 'inDegrees', this indicates whether rotational values are in degrees (yes) or radians (no).

endheader
time	pelvis_tilt	pelvis_list	pelvis_rotation	pelvis_tx	pelvis_ty	pelvis_tz	hip_flexion_r	hip_adduction_r	hip_rotation_r	knee_angle_r	ankle_angle_r	subtalar_angle_r	mtp_angle_r	hip_flexion_l	hip_adduction_l	hip_rotation_l	knee_angle_l	ankle_angle_l	subtalar_angle_l	mtp_angle_l	lumbar_extension	lumbar_bending	lumbar_rotation	arm_flex_r	arm_add_r	arm_rot_r	elbow_flex_r	pro_sup_r	arm_flex_l	arm_add_l	arm_rot_l	elbow_flex_l	pro_sup_l
      1.73333330	     -0.46520211	      1.08055032	      2.83768216	      0.77488644	      0.91116088	     -0.01484278	     -2.34221974	     -4.05966416	    -15.34651144	      0.04963099	      7.35561858	     -0.32144732	      0.00000000	     -1.73937781	     -3.58866754	    -17.17109543	      0.00000000	      7.55029826	     11.30832829	      0.00000000	      0.31908736	     -0.63231948	      2.33524169	     14.89470004	     -7.26373757	     64.88272399	     58.19970505	     85.62222170	     14.65782456	     -3.99624100	     52.40927511	     47.63358306	     82.06015387
      1.75000000	     -0.45844167	      1.07588737	      2.84345692	      0.77465286	      0.91087788	     -0.01474053	     -2.32975818	     -4.05716457	    -15.34742990	      0.04265717	      7.35861420	     -0.32222524	      0.00000000	     -1.74976980	     -3.58991474	    -17.17010543	      0.00000000	      7.55117281	     11.30974662	      0.00000000	      0.32338838	     -0.63097445	      2.33757831	     14.90088586	     -7.26399327	     64.87694483	     58.19916396	     85.62110987	     14.65406921	     -3.99667799	     52.41012099	     47.63404965	     82.06261844
      1.76666670	     -0.44793615	      1.07301788	      2.84443299	      0.77510883	      0.91108750	     -0.01460352	     -2.32378896	     -4.05816490	    -15.34754098	      0.04008114	      7.35906558	     -0.32240480	      0.00000000	     -1.74619970	     -3.58960898	    -17.16977651	      0.00000000	      7.55146598	     11.30999918	      0.00000000	      0.32360965	     -0.63066351	      2.33775127	     14.90157590	     -7.26398111	     64.87612071	     58.19904009	     85.62092579	     14.65378455	     -3.99664678	     52.41020209	     47.63416530	     82.06304418
      1.78333330	     -0.43299777	      1.02003050	      2.78840398	      0.77559770	      0.91138466	     -0.01431072	     -2.34003140	     -3.97825443	    -15.39028213	      0.03943646	      7.38935324	     -0.34603005	      0.00000000	     -1.80874331	     -3.67211079	    -17.16361796	      0.00000000	      7.57777928	     11.32605682	      0.00000000	      0.37715253	     -0.62706317	      2.34268859	     14.83486194	     -7.22818254	     64.84631722	     58.18902887	     85.60639488	     14.60058312	     -4.01115399	     52.42049561	     47.64019435	     82.10403325
      1.80000000	     -0.43112882	      1.02554510	      2.79520393	      0.77498345	      0.91132143	     -0.01423502	     -2.33711338	     -3.97753999	    -15.38967349	      0.03618522	      7.39053030	     -0.34550145	      0.00000000	     -1.81160675	     -3.67732998	    -17.16588599	      0.00000000	      7.58023157	     11.32587290	      0.00000000	      0.37951711	     -0.62316286	      2.34277700	     14.83113448	     -7.22721513	     64.84503166	     58.18824806	     85.60565206	     14.60042934	     -4.01165345	     52.42026345	     47.64087888	     82.10611915
      1.81666670	     -0.43381571	      1.02789350	      2.79655395	      0.77476390	      0.91116868	     -0.01427025	     -2.33668936	     -3.97783693	    -15.38955353	      0.03517008	      7.39082566	     -0.34537928	      0.00000000	     -1.81514051	     -3.68030867	    -17.16631996	      0.00000000	      7.58067507	     11.32588858	      0.00000000	      0.38001752	     -0.62256766	      2.34259827	     14.82994195	     -7.22689201	     64.84491033	     58.18806477	     85.60550363	     14.60066456	     -4.01177463	     52.42014723	     47.64104189	     82.10655298
      1.83333330	     -0.41424536	      1.02664371	      2.79881436	      0.77363393	      0.91131875	     -0.01464306	     -2.31983857	     -3.98095775	    -15.38990587	      0.01735761	      7.39393373	     -0.34514310	      0.00000000	     -1.81385312	     -3.68610970	    -17.16838865	      0.00000000	      7.58426787	     11.32662989	      0.00000000	      0.38331890	     -0.61954507	      2.34056905	     14.82009964	     -7.22370104	     64.84510526	     58.18696699	     85.60461392	     14.60433303	     -4.01272696	     52.41895302	     47.64234311	     82.10928919
      1.85000000	     -0.40032084	      1.02680184	      2.79886737	      0.77413786	      0.91139860	     -0.01464387	     -2.31260907	     -3.98121588	    -15.38978275	      0.01312261	      7.39415117	     -0.34500763	      0.00000000	     -1.80750652	     -3.68626474	    -17.16848360	      0.00000000	      7.58466791	     11.32684876	      0.00000000	      0.38273637	     -0.61886989	      2.33987570	     14.81863760	     -7.22343053	     64.84515205	     58.18665780	     85.60447471	     14.60581712	     -4.01265285	     52.41858893	     47.64261933	     82.10969710
      1.86666670	     -0.39059981	      1.02270472	      2.79253350	      0.77336147	      0.91185762	     -0.01489778	     -2.30870121	     -3.98333062	    -15.39138458	      0.00000000	      7.39507501	     -0.34450788	      0.00000000	     -1.79490668	     -3.68460665	    -17.17074805	      0.00000000	      7.58704272	     11.32799622	      0.00000000	      0.38107333	     -0.61457722	      2.33506234	     14.80452927	     -7.22099263	     64.84729543	     58.18473356	     85.60375581	     14.61306474	     -4.01223098	     52.41680835	     47.64417968	     82.11215847
      1.88333330	     -0.38207370	      1.02068469	      2.79198460	      0.77355711	      0.91190603	     -0.01485211	     -2.30468745	     -3.98624096	    -15.39148864	      0.00000000	      7.39511315	     -0.34434025	      0.00000000	     -1.78954457	     -3.68466585	    -17.17100912	      0.00000000	      7.58726952	     11.32823626	      0.00000000	      0.38013796	     -0.61356590	      2.33421782	     14.80251192	     -7.22079461	     64.84759763	     58.18434044	     85.60363966	     14.61456226	     -4.01201979	     52.41646154	     47.64445583	     82.11253456
      1.90000000	     -0.42305555	      1.02758035	      2.76260843	      0.77262470	      0.91062185	     -0.01489383	     -2.21501288	     -4.02349341	    -15.40415504	      0.00000000	      7.39065828	     -0.32440320	      0.00000000	     -1.70000882	     -3.65770764	    -17.20336962	      0.00000000	      7.60586058	     11.34901155	      0.00000000	      0.26760394	     -0.51608044	      2.27924950	     14.66126727	     -7.20078205	     64.86634181	     58.15047179	     85.59257810	     14.75788777	     -3.99509612	     52.38277470	     47.67087193	     82.14668143
      1.91666670	     -0.41332528	      1.02559876	      2.76240386	      0.77300191	      0.91126905	     -0.01479766	     -2.21402003	     -4.02563908	    -15.40382792	      0.00076405	      7.39060534	     -0.32403588	      0.00000000	     -1.68933795	     -3.65817017	    -17.20342778	      0.00000000	      7.60622276	     11.34935255	      0.00000000	      0.26769243	     -0.51591953	      2.27983542	     14.66158920	     -7.20035689	     64.86599295	     58.15041597	     85.59241542	     14.75853165	     -3.99515556	     52.38252649	     47.67118051	     82.14711778
      1.93333330	     -0.39579795	      1.02584317	      2.76640458	      0.77121474	      0.91079887	     -0.01476798	     -2.21722885	     -4.02715822	    -15.40123066	      0.00000000	      7.39095491	     -0.32089937	      0.00000000	     -1.66469075	     -3.66192444	    -17.20476483	      0.00000000	      7.60820474	     11.35183876	      0.00000000	      0.27026484	     -0.51415565	      2.28417972	     14.66121161	     -7.19767994	     64.86482973	     58.15037106	     85.59151826	     14.76219854	     -3.99697174	     52.38079577	     47.67354855	     82.14974251
